# xmcd CD database file
#
# Track frame offsets:
#	150
#	2702
#	20712
#	22630
#	40882
#	42635
#	64437
#	66307
#	86845
#	88817
#	109255
#	111515
#	126320
#	128102
#	150087
#	153345
#	172947
#	174662
#	195507
#	197317
#	218112
#	220492
#	243897
#	250762
#
# Disc length: 3580 seconds
#
# Revision: 2
# Processed by: cddbd v1.5.2PL0 Copyright (c) Steve Scherf et al.
# Submitted via: CDex 1.70beta3
#
DISCID=4d0dfa18
DTITLE=NECアベニュー - 誕生 -DEBUT-
DYEAR=1994
DGENRE=Game
TTITLE0=ミッチェル・レイ - "Debut" Countdown ～Opening
TTITLE1=伊藤亜紀(富永みーな) and 藤村さおり(笠原弘子) and 田中久美(かないみか) - ヴィーナスの誕生
TTITLE2=ミッチェル・レイ - Countdown No.10
TTITLE3=柿崎涼子(佐久間レイ) - LONELY SHOUT ～孤独な叫び～
TTITLE4=ミッチェル・レイ - Countdown No.9
TTITLE5=藤村さおり(笠原弘子) - ためいきラプソディ
TTITLE6=ミッチェル・レイ - Countdown No.8
TTITLE7=木暮由佳(日高のりこ) - ライト アンド シャドウ
TTITLE8=ミッチェル・レイ - Countdown No.7
TTITLE9=楠忍(天野由梨) - ILLUSION
TTITLE10=ミッチェル・レイ - Countdown No.6
TTITLE11=成沢みかん(三石琴乃) - M・I・K・A・N
TTITLE12=ミッチェル・レイ - Countdown No.5
TTITLE13=田中久美(かないみか) - 春色未満
TTITLE14=ミッチェル・レイ - Countdown No.4
TTITLE15=綾瀬美緒(島本須美) - 哀・日本海
TTITLE16=ミッチェル・レイ - Countdown No.3
TTITLE17=本田みすず(川村万梨阿) - 愛痛くて…会いたくて…
TTITLE18=ミッチェル・レイ - Countdown No.2
TTITLE19=伊藤亜紀(富永みーな) - せつなさのかけら
TTITLE20=ミッチェル・レイ - Countdown No.1
TTITLE21=鈴麗(皆口裕子) - 春雷
TTITLE22=ミッチェル・レイ - "Debut" Countdown ～Ending
TTITLE23=伊藤亜紀(富永みーな) and 藤村さおり(笠原弘子) and 田中久美(かないみか) - トライアングル・マジック
EXTD=YEAR: 1994
EXTT0=
EXTT1=
EXTT2=
EXTT3=
EXTT4=
EXTT5=
EXTT6=
EXTT7=
EXTT8=
EXTT9=
EXTT10=
EXTT11=
EXTT12=
EXTT13=
EXTT14=
EXTT15=
EXTT16=
EXTT17=
EXTT18=
EXTT19=
EXTT20=
EXTT21=
EXTT22=
EXTT23=
PLAYORDER=
